<?xml version="1.0" standalone="no"?><!DOCTYPE svg PUBLIC "-//W3C//DTD SVG 1.1//EN" "http://www.w3.org/Graphics/SVG/1.1/DTD/svg11.dtd"><svg t="1602334442519" class="icon" viewBox="0 0 1024 1024" version="1.1" xmlns="http://www.w3.org/2000/svg" p-id="4582" xmlns:xlink="http://www.w3.org/1999/xlink" width="200" height="200"><defs><style type="text/css"></style></defs><path d="M547.7 546.6c-19.2 19.2-50.1 19.2-69.3 0-19.2-19.2-19.2-50.1 0-69.3s50.1-19.2 69.3 0c19.1 19.2 19.1 50.1 0 69.3z" p-id="4583" fill="#70a6dc"></path><path d="M513 63.9c-247.5 0-448 200.5-448 448s200.5 448 448 448 448-200.6 448-448-200.5-448-448-448zM592.1 591c-23.9 24-56 34.8-87.3 32.5L315 709.9l86.3-189.8c-2.3-31.3 8.6-63.4 32.5-87.3 23.9-24 56-34.8 87.3-32.5L710.9 314l-86.3 189.8c2.3 31.2-8.5 63.3-32.5 87.2z" p-id="4584" fill="#70a6dc"></path></svg>